# xmcd CD database file
#
# Track frame offsets:
#	150
#	18287
#	29250
#	44557
#	60895
#	71160
#	84305
#	97837
#	111722
#	119207
#	131042
#	146392
#	158615
#	170770
#	182770
#	211217
#	226797
#	240552
#	264682
#	277922
#	289660
#	300937
#	313680
#	324732
#	336112
#
# Disc length: 4717 seconds
#
# Revision: 2
# Processed by: cddbd v1.5.2PL0 Copyright (c) Steve Scherf et al.
# Submitted via: CDex 1.51
#
DISCID=64126b19
DTITLE=Honza Vycital - T jako Textar - cd2
DYEAR=2006
DGENRE=Country
TTITLE0=Cadillac
TTITLE1=Waterloo
TTITLE2=El Paso
TTITLE3=Divka, co se smala jak Chaplinuv Kid
TTITLE4=Hej, strojvudce
TTITLE5=Veteran
TTITLE6=Blizko Little Big Hornu
TTITLE7=Zbyl mi jen tvuj mokasin
TTITLE8=Slapej dal
TTITLE9=Carmen
TTITLE10=Sedm spanelskych andelu
TTITLE11=Michaluv song
TTITLE12=Medomlsnej Dan
TTITLE13=Hromskej den
TTITLE14=Feleena z El Pasa
TTITLE15=Kocour prospektor
TTITLE16=Necekej uz dal
TTITLE17=Dlouhy cerny zavoj
TTITLE18=Mistre Buriane, diky za ten svet
TTITLE19=Porad cestuju sam
TTITLE20=Zpivam pisne vetru z hor
TTITLE21=Neklaunova zpoved
TTITLE22=Ja zivot jsem jak tramskej bagl lehce rozbalil
TTITLE23=Zacni hrat
TTITLE24=Battledress
EXTD=YEAR: 2006
EXTT0=
EXTT1=
EXTT2=
EXTT3=
EXTT4=
EXTT5=
EXTT6=
EXTT7=
EXTT8=
EXTT9=
EXTT10=
EXTT11=
EXTT12=
EXTT13=
EXTT14=
EXTT15=
EXTT16=
EXTT17=
EXTT18=
EXTT19=
EXTT20=
EXTT21=
EXTT22=
EXTT23=
EXTT24=
PLAYORDER=
